<?xml version="1.0" encoding="UTF-8" standalone="no"?>
<!DOCTYPE svg PUBLIC "-//W3C//DTD SVG 1.1//EN" "http://www.w3.org/Graphics/SVG/1.1/DTD/svg11.dtd">
<svg width="100%" height="100%" viewBox="0 0 1439 1439" version="1.1" xmlns="http://www.w3.org/2000/svg" xmlns:xlink="http://www.w3.org/1999/xlink" xml:space="preserve" xmlns:serif="http://www.serif.com/" style="fill-rule:evenodd;clip-rule:evenodd;stroke-linecap:round;stroke-linejoin:round;stroke-miterlimit:1.5;">
    <g transform="matrix(1,0,0,1,-29.0794,-14.735)">
        <g transform="matrix(0.912795,0,0,0.912795,-449.536,-111.816)">
            <g transform="matrix(1.2102,0,0,1.2074,-310.363,-364.657)">
                <ellipse cx="1340.67" cy="1069.3" rx="641.518" ry="643.007" style="fill:rgb(220,255,178);stroke:rgb(92,173,0);stroke-width:18.88px;"/>
            </g>
        </g>
        <g transform="matrix(0.912795,0,0,0.912795,-449.536,-111.816)">
            <g transform="matrix(0.920104,0,0,0.691788,173.387,192.955)">
                <path d="M1028.56,1541.59L933.838,1541.59C850.927,1541.59 809.471,1486.82 809.471,1377.28L809.471,1183.38C809.471,1108.53 781.88,1071.1 726.697,1071.1L649.689,1071.1L649.689,965.388L726.285,965.388C781.743,965.388 809.471,928.325 809.471,854.2L809.471,660.854C809.471,550.579 850.927,495.441 933.838,495.441L1028.56,495.441L1028.56,578.147L933.838,578.147C897.599,578.147 879.479,602.247 879.479,650.447L879.479,878.848C879.479,960.276 847.083,1006.83 782.292,1018.52C847.083,1035.31 879.479,1081.51 879.479,1157.09L879.479,1386.59C879.479,1434.79 897.599,1458.89 933.838,1458.89L1028.56,1458.89L1028.56,1541.59Z" style="fill:rgb(35,31,32);fill-rule:nonzero;"/>
                <path d="M1426.36,567.741L1162.81,1473.68L1094.86,1473.68L1358.83,567.741L1426.36,567.741Z" style="fill:rgb(35,31,32);fill-rule:nonzero;"/>
                <path d="M1493.08,1541.59L1493.08,1458.89L1587.79,1458.89C1624.03,1458.89 1642.15,1434.79 1642.15,1386.59L1642.15,1157.09C1642.15,1081.51 1674.55,1035.31 1739.34,1018.52C1674.55,1006.83 1642.15,960.276 1642.15,878.848L1642.15,650.447C1642.15,602.247 1624.03,578.147 1587.79,578.147L1493.08,578.147L1493.08,495.441L1587.79,495.441C1670.7,495.441 1712.16,550.579 1712.16,660.854L1712.16,854.2C1712.16,928.325 1739.89,965.388 1795.35,965.388L1871.94,965.388L1871.94,1071.1L1794.93,1071.1C1739.75,1071.1 1712.16,1108.53 1712.16,1183.38L1712.16,1377.28C1712.16,1486.82 1670.7,1541.59 1587.79,1541.59L1493.08,1541.59Z" style="fill:rgb(35,31,32);fill-rule:nonzero;"/>
            </g>
        </g>
        <g transform="matrix(0.912795,0,0,0.912795,-449.536,-111.816)">
            <g transform="matrix(1.89781,0,0,0.908496,-685.763,1043.23)">
                <g transform="matrix(1,0,0,1,0,2.41878)">
                    <path d="M828.437,345.412C828.437,333.033 838.487,322.983 850.866,322.983C863.245,322.983 873.295,333.033 873.295,345.412" style="fill:none;stroke:rgb(255,0,57);stroke-width:15.34px;"/>
                </g>
                <g transform="matrix(1,0,0,1,0,2.41878)">
                    <path d="M828.354,345.412C828.354,357.79 818.304,367.841 805.925,367.841C793.546,367.841 783.496,357.79 783.496,345.412" style="fill:none;stroke:rgb(255,0,57);stroke-width:15.34px;"/>
                </g>
                <g transform="matrix(1,0,0,1,89.7992,2.41878)">
                    <path d="M828.437,345.412C828.437,333.033 838.487,322.983 850.866,322.983C863.245,322.983 873.295,333.033 873.295,345.412" style="fill:none;stroke:rgb(255,0,57);stroke-width:15.34px;"/>
                </g>
                <g transform="matrix(1,0,0,1,89.7992,2.41878)">
                    <path d="M828.354,345.412C828.354,357.79 818.304,367.841 805.925,367.841C793.546,367.841 783.496,357.79 783.496,345.412" style="fill:none;stroke:rgb(255,0,57);stroke-width:15.34px;"/>
                </g>
                <g transform="matrix(1,0,0,1,179.515,2.41878)">
                    <path d="M828.437,345.412C828.437,333.033 838.487,322.983 850.866,322.983C863.245,322.983 873.295,333.033 873.295,345.412" style="fill:none;stroke:rgb(255,0,57);stroke-width:15.34px;"/>
                </g>
                <g transform="matrix(1,0,0,1,269.231,2.41878)">
                    <path d="M828.437,345.412C828.437,333.033 838.487,322.983 850.866,322.983C863.245,322.983 873.295,333.033 873.295,345.412" style="fill:none;stroke:rgb(255,0,57);stroke-width:15.34px;"/>
                </g>
                <g transform="matrix(1,0,0,1,358.947,2.41878)">
                    <path d="M828.437,345.412C828.437,333.033 838.487,322.983 850.866,322.983C863.245,322.983 873.295,333.033 873.295,345.412" style="fill:none;stroke:rgb(255,0,57);stroke-width:15.34px;"/>
                </g>
                <g transform="matrix(1,0,0,1,448.663,2.41878)">
                    <path d="M828.437,345.412C828.437,333.033 838.487,322.983 850.866,322.983C863.245,322.983 873.295,333.033 873.295,345.412" style="fill:none;stroke:rgb(255,0,57);stroke-width:15.34px;"/>
                </g>
                <g transform="matrix(1,0,0,1,179.598,2.41878)">
                    <path d="M828.354,345.412C828.354,357.79 818.304,367.841 805.925,367.841C793.546,367.841 783.496,357.79 783.496,345.412" style="fill:none;stroke:rgb(255,0,57);stroke-width:15.34px;"/>
                </g>
                <g transform="matrix(1,0,0,1,269.314,2.41878)">
                    <path d="M828.354,345.412C828.354,357.79 818.304,367.841 805.925,367.841C793.546,367.841 783.496,357.79 783.496,345.412" style="fill:none;stroke:rgb(255,0,57);stroke-width:15.34px;"/>
                </g>
                <g transform="matrix(1,0,0,1,359.031,2.41878)">
                    <path d="M828.354,345.412C828.354,357.79 818.304,367.841 805.925,367.841C793.546,367.841 783.496,357.79 783.496,345.412" style="fill:none;stroke:rgb(255,0,57);stroke-width:15.34px;"/>
                </g>
                <g transform="matrix(1,0,0,1,448.747,2.41878)">
                    <path d="M828.354,345.412C828.354,357.79 818.304,367.841 805.925,367.841C793.546,367.841 783.496,357.79 783.496,345.412" style="fill:none;stroke:rgb(255,0,57);stroke-width:15.34px;"/>
                </g>
            </g>
        </g>
    </g>
</svg>
